<svg xmlns="http://www.w3.org/2000/svg" viewBox="0 0 128 128" role="img" aria-label="Sunflower icon">
  <defs>
    <linearGradient id="petal" x1="0" y1="0" x2="1" y2="1">
      <stop offset="0" stop-color="#fff2a8"/>
      <stop offset="0.48" stop-color="#ffd75e"/>
      <stop offset="1" stop-color="#e79a24"/>
    </linearGradient>
    <radialGradient id="center" cx="46%" cy="42%" r="60%">
      <stop offset="0" stop-color="#9b6230"/>
      <stop offset="0.55" stop-color="#5a3518"/>
      <stop offset="1" stop-color="#8a541d"/>
    </radialGradient>
  </defs>
  <g transform="translate(64 64)">
    <g fill="url(#petal)">
      <ellipse rx="11" ry="31" transform="rotate(0) translate(0 -43)"/>
      <ellipse rx="11" ry="31" transform="rotate(22.5) translate(0 -43)"/>
      <ellipse rx="11" ry="31" transform="rotate(45) translate(0 -43)"/>
      <ellipse rx="11" ry="31" transform="rotate(67.5) translate(0 -43)"/>
      <ellipse rx="11" ry="31" transform="rotate(90) translate(0 -43)"/>
      <ellipse rx="11" ry="31" transform="rotate(112.5) translate(0 -43)"/>
      <ellipse rx="11" ry="31" transform="rotate(135) translate(0 -43)"/>
      <ellipse rx="11" ry="31" transform="rotate(157.5) translate(0 -43)"/>
      <ellipse rx="11" ry="31" transform="rotate(180) translate(0 -43)"/>
      <ellipse rx="11" ry="31" transform="rotate(202.5) translate(0 -43)"/>
      <ellipse rx="11" ry="31" transform="rotate(225) translate(0 -43)"/>
      <ellipse rx="11" ry="31" transform="rotate(247.5) translate(0 -43)"/>
      <ellipse rx="11" ry="31" transform="rotate(270) translate(0 -43)"/>
      <ellipse rx="11" ry="31" transform="rotate(292.5) translate(0 -43)"/>
      <ellipse rx="11" ry="31" transform="rotate(315) translate(0 -43)"/>
      <ellipse rx="11" ry="31" transform="rotate(337.5) translate(0 -43)"/>
    </g>
    <circle r="33" fill="url(#center)"/>
    <circle r="22" fill="none" stroke="#fff2a8" stroke-width="3" stroke-dasharray="2 6" opacity="0.55"/>
  </g>
</svg>
